<svg width="24" height="24" viewBox="0 0 24 24" fill="none" xmlns="http://www.w3.org/2000/svg">
<path d="M16.5 15.251C16.31 15.251 16.12 15.181 15.97 15.031L12.42 11.481L11.33 13.121C11.21 13.311 11 13.431 10.78 13.451C10.6699 13.4622 10.5586 13.4483 10.4546 13.4101C10.3507 13.372 10.2568 13.3108 10.18 13.231L6.98 10.031C6.84052 9.88986 6.7623 9.69943 6.7623 9.501C6.7623 9.30257 6.84052 9.11214 6.98 8.971C7.27 8.681 7.75 8.681 8.04 8.971L10.59 11.521L11.68 9.881C11.8 9.701 12 9.581 12.23 9.551C12.46 9.531 12.68 9.611 12.83 9.771L17.03 13.971C17.32 14.261 17.32 14.741 17.03 15.031C16.88 15.181 16.69 15.251 16.5 15.251Z" fill="black"/>
<path d="M16.5 15.25H14.5C14.09 15.25 13.75 14.91 13.75 14.5C13.75 14.09 14.09 13.75 14.5 13.75H15.75V12.5C15.75 12.09 16.09 11.75 16.5 11.75C16.91 11.75 17.25 12.09 17.25 12.5V14.5C17.25 14.91 16.91 15.25 16.5 15.25Z" fill="black"/>
<path d="M15 22.75H9C3.57 22.75 1.25 20.43 1.25 15V9C1.25 3.57 3.57 1.25 9 1.25H15C20.43 1.25 22.75 3.57 22.75 9V15C22.75 20.43 20.43 22.75 15 22.75ZM9 2.75C4.39 2.75 2.75 4.39 2.75 9V15C2.75 19.61 4.39 21.25 9 21.25H15C19.61 21.25 21.25 19.61 21.25 15V9C21.25 4.39 19.61 2.75 15 2.75H9Z" fill="black"/>
</svg>
